<?xml version="1.0" encoding="UTF-8"?>
<svg xmlns="http://www.w3.org/2000/svg" xmlns:xlink="http://www.w3.org/1999/xlink" width="1280" height="720" viewBox="0 0 1280 720">
<defs>
<g>
<g id="glyph-0-0">
<path d="M 4.015625 0.09375 C 3.234375 0.09375 2.585938 -0.0546875 2.078125 -0.359375 C 1.566406 -0.660156 1.1875 -1.085938 0.9375 -1.640625 C 0.6875 -2.191406 0.5625 -2.835938 0.5625 -3.578125 C 0.5625 -4.296875 0.691406 -4.929688 0.953125 -5.484375 C 1.222656 -6.035156 1.617188 -6.460938 2.140625 -6.765625 C 2.660156 -7.078125 3.300781 -7.234375 4.0625 -7.234375 C 4.8125 -7.234375 5.367188 -7.125 5.734375 -6.90625 C 6.097656 -6.695312 6.28125 -6.4375 6.28125 -6.125 C 6.28125 -5.90625 6.1875 -5.734375 6 -5.609375 C 5.820312 -5.484375 5.601562 -5.421875 5.34375 -5.421875 C 5.34375 -5.628906 5.300781 -5.828125 5.21875 -6.015625 C 5.132812 -6.210938 4.992188 -6.375 4.796875 -6.5 C 4.609375 -6.632812 4.351562 -6.703125 4.03125 -6.703125 C 3.1875 -6.703125 2.582031 -6.429688 2.21875 -5.890625 C 1.863281 -5.347656 1.6875 -4.578125 1.6875 -3.578125 C 1.6875 -2.578125 1.875 -1.804688 2.25 -1.265625 C 2.625 -0.734375 3.265625 -0.46875 4.171875 -0.46875 C 4.359375 -0.46875 4.539062 -0.476562 4.71875 -0.5 C 4.90625 -0.519531 5.066406 -0.550781 5.203125 -0.59375 L 5.203125 -2.203125 C 5.203125 -2.492188 5.117188 -2.675781 4.953125 -2.75 C 4.796875 -2.832031 4.609375 -2.875 4.390625 -2.875 L 4.34375 -2.875 L 4.34375 -3.296875 L 6.953125 -3.296875 L 6.953125 -2.875 L 6.90625 -2.875 C 6.71875 -2.875 6.554688 -2.832031 6.421875 -2.75 C 6.285156 -2.664062 6.21875 -2.46875 6.21875 -2.15625 L 6.21875 -0.359375 C 5.882812 -0.203125 5.539062 -0.0859375 5.1875 -0.015625 C 4.832031 0.0546875 4.441406 0.09375 4.015625 0.09375 Z "/>
</g>
<g id="glyph-0-1">
<path d="M 2.875 0.09375 C 2.15625 0.09375 1.585938 -0.132812 1.171875 -0.59375 C 0.753906 -1.050781 0.546875 -1.75 0.546875 -2.6875 C 0.546875 -3.625 0.742188 -4.316406 1.140625 -4.765625 C 1.535156 -5.222656 2.125 -5.453125 2.90625 -5.453125 C 3.625 -5.453125 4.1875 -5.222656 4.59375 -4.765625 C 5.007812 -4.316406 5.21875 -3.625 5.21875 -2.6875 C 5.21875 -1.75 5.019531 -1.050781 4.625 -0.59375 C 4.226562 -0.132812 3.644531 0.09375 2.875 0.09375 Z M 2.890625 -0.421875 C 3.390625 -0.421875 3.738281 -0.609375 3.9375 -0.984375 C 4.144531 -1.367188 4.25 -1.9375 4.25 -2.6875 C 4.25 -3.4375 4.144531 -4 3.9375 -4.375 C 3.726562 -4.75 3.375 -4.9375 2.875 -4.9375 C 2.375 -4.9375 2.019531 -4.75 1.8125 -4.375 C 1.613281 -4 1.515625 -3.4375 1.515625 -2.6875 C 1.515625 -1.9375 1.617188 -1.367188 1.828125 -0.984375 C 2.035156 -0.609375 2.390625 -0.421875 2.890625 -0.421875 Z "/>
</g>
<g id="glyph-0-2">
<path d="M 2.046875 0.09375 C 1.597656 0.09375 1.226562 -0.0351562 0.9375 -0.296875 C 0.644531 -0.554688 0.5 -0.957031 0.5 -1.5 C 0.5 -2.03125 0.6875 -2.421875 1.0625 -2.671875 C 1.4375 -2.929688 2.007812 -3.070312 2.78125 -3.09375 L 3.609375 -3.125 L 3.609375 -3.734375 C 3.609375 -3.972656 3.585938 -4.179688 3.546875 -4.359375 C 3.503906 -4.546875 3.414062 -4.691406 3.28125 -4.796875 C 3.15625 -4.898438 2.957031 -4.953125 2.6875 -4.953125 C 2.425781 -4.953125 2.226562 -4.90625 2.09375 -4.8125 C 1.96875 -4.726562 1.878906 -4.601562 1.828125 -4.4375 C 1.785156 -4.269531 1.765625 -4.082031 1.765625 -3.875 C 1.484375 -3.875 1.269531 -3.921875 1.125 -4.015625 C 0.988281 -4.109375 0.921875 -4.269531 0.921875 -4.5 C 0.921875 -4.726562 1 -4.910156 1.15625 -5.046875 C 1.320312 -5.191406 1.539062 -5.296875 1.8125 -5.359375 C 2.09375 -5.421875 2.394531 -5.453125 2.71875 -5.453125 C 3.332031 -5.453125 3.789062 -5.320312 4.09375 -5.0625 C 4.394531 -4.8125 4.546875 -4.367188 4.546875 -3.734375 L 4.546875 -1.140625 C 4.546875 -0.859375 4.59375 -0.664062 4.6875 -0.5625 C 4.78125 -0.46875 4.941406 -0.421875 5.171875 -0.421875 L 5.203125 -0.421875 L 5.203125 0 L 3.84375 0 L 3.6875 -0.859375 L 3.609375 -0.859375 C 3.472656 -0.671875 3.335938 -0.503906 3.203125 -0.359375 C 3.066406 -0.222656 2.910156 -0.113281 2.734375 -0.03125 C 2.554688 0.0507812 2.328125 0.09375 2.046875 0.09375 Z M 2.28125 -0.515625 C 2.6875 -0.515625 3.007812 -0.640625 3.25 -0.890625 C 3.488281 -1.140625 3.609375 -1.476562 3.609375 -1.90625 L 3.609375 -2.71875 L 2.96875 -2.6875 C 2.40625 -2.664062 2.015625 -2.550781 1.796875 -2.34375 C 1.578125 -2.144531 1.46875 -1.847656 1.46875 -1.453125 C 1.46875 -0.828125 1.738281 -0.515625 2.28125 -0.515625 Z "/>
</g>
<g id="glyph-0-3">
<path d="M 0.125 0 L 0.125 -0.421875 L 0.265625 -0.421875 C 0.484375 -0.421875 0.671875 -0.460938 0.828125 -0.546875 C 0.992188 -0.628906 1.078125 -0.828125 1.078125 -1.140625 L 1.078125 -6.5 C 1.078125 -6.789062 0.992188 -6.976562 0.828125 -7.0625 C 0.671875 -7.144531 0.484375 -7.1875 0.265625 -7.1875 L 0.125 -7.1875 L 0.125 -7.59375 L 2.015625 -7.59375 L 2.015625 -1.140625 C 2.015625 -0.828125 2.09375 -0.628906 2.25 -0.546875 C 2.414062 -0.460938 2.613281 -0.421875 2.84375 -0.421875 L 2.96875 -0.421875 L 2.96875 0 Z "/>
</g>
<g id="glyph-0-4">
<path d="M 1.4375 -4.046875 C 1.269531 -4.046875 1.125 -4.09375 1 -4.1875 C 0.875 -4.289062 0.8125 -4.472656 0.8125 -4.734375 C 0.8125 -4.992188 0.875 -5.171875 1 -5.265625 C 1.125 -5.359375 1.269531 -5.40625 1.4375 -5.40625 C 1.613281 -5.40625 1.757812 -5.359375 1.875 -5.265625 C 2 -5.171875 2.0625 -4.992188 2.0625 -4.734375 C 2.0625 -4.472656 2 -4.289062 1.875 -4.1875 C 1.757812 -4.09375 1.613281 -4.046875 1.4375 -4.046875 Z M 1.4375 0.0625 C 1.269531 0.0625 1.125 0.015625 1 -0.078125 C 0.875 -0.179688 0.8125 -0.359375 0.8125 -0.609375 C 0.8125 -0.867188 0.875 -1.046875 1 -1.140625 C 1.125 -1.242188 1.269531 -1.296875 1.4375 -1.296875 C 1.613281 -1.296875 1.757812 -1.242188 1.875 -1.140625 C 2 -1.046875 2.0625 -0.867188 2.0625 -0.609375 C 2.0625 -0.359375 2 -0.179688 1.875 -0.078125 C 1.757812 0.015625 1.613281 0.0625 1.4375 0.0625 Z "/>
</g>
<g id="glyph-0-5">
</g>
<g id="glyph-0-6">
<path d="M 2.875 0.09375 C 2.144531 0.09375 1.570312 -0.144531 1.15625 -0.625 C 0.75 -1.101562 0.546875 -1.773438 0.546875 -2.640625 C 0.546875 -3.578125 0.738281 -4.28125 1.125 -4.75 C 1.507812 -5.21875 2.054688 -5.453125 2.765625 -5.453125 C 3.410156 -5.453125 3.914062 -5.253906 4.28125 -4.859375 C 4.65625 -4.460938 4.84375 -3.863281 4.84375 -3.0625 L 4.84375 -2.609375 L 1.515625 -2.609375 C 1.535156 -1.878906 1.671875 -1.347656 1.921875 -1.015625 C 2.171875 -0.691406 2.535156 -0.53125 3.015625 -0.53125 C 3.359375 -0.53125 3.648438 -0.597656 3.890625 -0.734375 C 4.140625 -0.878906 4.320312 -1.046875 4.4375 -1.234375 C 4.488281 -1.210938 4.53125 -1.171875 4.5625 -1.109375 C 4.601562 -1.046875 4.625 -0.972656 4.625 -0.890625 C 4.625 -0.753906 4.5625 -0.609375 4.4375 -0.453125 C 4.3125 -0.304688 4.117188 -0.175781 3.859375 -0.0625 C 3.597656 0.0390625 3.269531 0.09375 2.875 0.09375 Z M 3.84375 -3.15625 C 3.84375 -3.6875 3.757812 -4.113281 3.59375 -4.4375 C 3.425781 -4.757812 3.144531 -4.921875 2.75 -4.921875 C 2.382812 -4.921875 2.097656 -4.769531 1.890625 -4.46875 C 1.691406 -4.164062 1.578125 -3.726562 1.546875 -3.15625 Z "/>
</g>
<g id="glyph-0-7">
<path d="M 0.28125 0 L 0.28125 -0.421875 L 0.359375 -0.421875 C 0.585938 -0.421875 0.78125 -0.460938 0.9375 -0.546875 C 1.101562 -0.628906 1.1875 -0.828125 1.1875 -1.140625 L 1.1875 -4.265625 C 1.1875 -4.554688 1.101562 -4.738281 0.9375 -4.8125 C 0.78125 -4.894531 0.59375 -4.9375 0.375 -4.9375 L 0.328125 -4.9375 L 0.328125 -5.359375 L 1.953125 -5.359375 L 2.078125 -4.546875 L 2.125 -4.546875 C 2.332031 -4.921875 2.5625 -5.164062 2.8125 -5.28125 C 3.070312 -5.394531 3.363281 -5.453125 3.6875 -5.453125 C 4.21875 -5.453125 4.628906 -5.296875 4.921875 -4.984375 C 5.222656 -4.679688 5.375 -4.1875 5.375 -3.5 L 5.375 -1.140625 C 5.375 -0.828125 5.441406 -0.628906 5.578125 -0.546875 C 5.710938 -0.460938 5.894531 -0.421875 6.125 -0.421875 L 6.171875 -0.421875 L 6.171875 0 L 4.4375 0 L 4.4375 -3.453125 C 4.4375 -3.878906 4.351562 -4.210938 4.1875 -4.453125 C 4.019531 -4.691406 3.734375 -4.8125 3.328125 -4.8125 C 3.023438 -4.8125 2.785156 -4.738281 2.609375 -4.59375 C 2.429688 -4.445312 2.304688 -4.25 2.234375 -4 C 2.160156 -3.75 2.125 -3.484375 2.125 -3.203125 L 2.125 -1.09375 C 2.125 -0.800781 2.203125 -0.613281 2.359375 -0.53125 C 2.515625 -0.457031 2.703125 -0.421875 2.921875 -0.421875 L 2.96875 -0.421875 L 2.96875 0 Z "/>
</g>
<g id="glyph-0-8">
<path d="M 0.328125 0 L 0.328125 -0.421875 L 0.359375 -0.421875 C 0.585938 -0.421875 0.78125 -0.460938 0.9375 -0.546875 C 1.101562 -0.628906 1.1875 -0.828125 1.1875 -1.140625 L 1.1875 -4.265625 C 1.1875 -4.554688 1.101562 -4.738281 0.9375 -4.8125 C 0.769531 -4.894531 0.578125 -4.9375 0.359375 -4.9375 L 0.328125 -4.9375 L 0.328125 -5.359375 L 1.875 -5.359375 L 2.0625 -4.375 L 2.109375 -4.375 C 2.191406 -4.570312 2.285156 -4.753906 2.390625 -4.921875 C 2.492188 -5.085938 2.628906 -5.21875 2.796875 -5.3125 C 2.960938 -5.40625 3.191406 -5.453125 3.484375 -5.453125 C 3.847656 -5.453125 4.117188 -5.390625 4.296875 -5.265625 C 4.472656 -5.140625 4.5625 -4.960938 4.5625 -4.734375 C 4.5625 -4.523438 4.488281 -4.351562 4.34375 -4.21875 C 4.195312 -4.082031 3.957031 -4.015625 3.625 -4.015625 C 3.625 -4.296875 3.582031 -4.492188 3.5 -4.609375 C 3.425781 -4.734375 3.289062 -4.796875 3.09375 -4.796875 C 2.90625 -4.796875 2.75 -4.722656 2.625 -4.578125 C 2.5 -4.429688 2.398438 -4.242188 2.328125 -4.015625 C 2.253906 -3.796875 2.203125 -3.5625 2.171875 -3.3125 C 2.140625 -3.070312 2.125 -2.851562 2.125 -2.65625 L 2.125 -1.09375 C 2.125 -0.800781 2.203125 -0.613281 2.359375 -0.53125 C 2.523438 -0.457031 2.71875 -0.421875 2.9375 -0.421875 L 3.21875 -0.421875 L 3.21875 0 Z "/>
</g>
<g id="glyph-0-9">
<path d="M 1.609375 -6.359375 C 1.453125 -6.359375 1.316406 -6.40625 1.203125 -6.5 C 1.097656 -6.59375 1.046875 -6.753906 1.046875 -6.984375 C 1.046875 -7.210938 1.097656 -7.367188 1.203125 -7.453125 C 1.316406 -7.546875 1.453125 -7.59375 1.609375 -7.59375 C 1.765625 -7.59375 1.898438 -7.546875 2.015625 -7.453125 C 2.128906 -7.367188 2.1875 -7.210938 2.1875 -6.984375 C 2.1875 -6.753906 2.128906 -6.59375 2.015625 -6.5 C 1.898438 -6.40625 1.765625 -6.359375 1.609375 -6.359375 Z M 0.234375 0 L 0.234375 -0.421875 L 0.359375 -0.421875 C 0.578125 -0.421875 0.769531 -0.457031 0.9375 -0.53125 C 1.101562 -0.613281 1.1875 -0.800781 1.1875 -1.09375 L 1.1875 -4.265625 C 1.1875 -4.554688 1.101562 -4.738281 0.9375 -4.8125 C 0.769531 -4.894531 0.578125 -4.9375 0.359375 -4.9375 L 0.328125 -4.9375 L 0.328125 -5.359375 L 2.125 -5.359375 L 2.125 -1.140625 C 2.125 -0.828125 2.203125 -0.628906 2.359375 -0.546875 C 2.515625 -0.460938 2.707031 -0.421875 2.9375 -0.421875 L 3.0625 -0.421875 L 3.0625 0 Z "/>
</g>
<g id="glyph-0-10">
<path d="M 0.421875 0 L 0.421875 -0.40625 L 3.3125 -4.796875 L 1.765625 -4.796875 C 1.492188 -4.796875 1.3125 -4.722656 1.21875 -4.578125 C 1.132812 -4.441406 1.054688 -4.242188 0.984375 -3.984375 L 0.984375 -3.9375 L 0.5625 -3.9375 L 0.65625 -5.359375 L 4.484375 -5.359375 L 4.484375 -4.953125 L 1.578125 -0.5625 L 3.40625 -0.5625 C 3.632812 -0.5625 3.789062 -0.644531 3.875 -0.8125 C 3.96875 -0.976562 4.035156 -1.171875 4.078125 -1.390625 L 4.125 -1.625 L 4.546875 -1.625 L 4.5 0 Z "/>
</g>
<g id="glyph-0-11">
<path d="M 2.40625 0.09375 C 1.894531 0.09375 1.523438 -0.0195312 1.296875 -0.25 C 1.066406 -0.476562 0.953125 -0.878906 0.953125 -1.453125 L 0.953125 -4.796875 L 0.1875 -4.796875 L 0.1875 -5.1875 C 0.3125 -5.1875 0.445312 -5.210938 0.59375 -5.265625 C 0.738281 -5.316406 0.863281 -5.398438 0.96875 -5.515625 C 1.082031 -5.628906 1.175781 -5.769531 1.25 -5.9375 C 1.320312 -6.113281 1.382812 -6.332031 1.4375 -6.59375 L 1.890625 -6.59375 L 1.890625 -5.359375 L 3.203125 -5.359375 L 3.203125 -4.796875 L 1.890625 -4.796875 L 1.890625 -1.421875 C 1.890625 -1.078125 1.957031 -0.828125 2.09375 -0.671875 C 2.238281 -0.515625 2.425781 -0.4375 2.65625 -0.4375 C 2.769531 -0.4375 2.875 -0.441406 2.96875 -0.453125 C 3.070312 -0.460938 3.179688 -0.476562 3.296875 -0.5 L 3.296875 -0.0625 C 3.203125 -0.0195312 3.066406 0.015625 2.890625 0.046875 C 2.722656 0.078125 2.5625 0.09375 2.40625 0.09375 Z "/>
</g>
</g>
</defs>
<g fill="rgb(100%, 100%, 100%)" fill-opacity="1">
<use xlink:href="#glyph-0-0" x="30" y="30.69043"/>
<use xlink:href="#glyph-0-1" x="37" y="30.69043"/>
<use xlink:href="#glyph-0-2" x="43" y="30.69043"/>
<use xlink:href="#glyph-0-3" x="49" y="30.69043"/>
<use xlink:href="#glyph-0-4" x="52" y="30.69043"/>
<use xlink:href="#glyph-0-5" x="55" y="30.69043"/>
<use xlink:href="#glyph-0-0" x="58" y="30.69043"/>
<use xlink:href="#glyph-0-6" x="65" y="30.69043"/>
<use xlink:href="#glyph-0-7" x="70" y="30.69043"/>
<use xlink:href="#glyph-0-6" x="76" y="30.69043"/>
<use xlink:href="#glyph-0-8" x="81" y="30.69043"/>
<use xlink:href="#glyph-0-2" x="86" y="30.69043"/>
<use xlink:href="#glyph-0-3" x="92" y="30.69043"/>
<use xlink:href="#glyph-0-9" x="95" y="30.69043"/>
<use xlink:href="#glyph-0-10" x="98" y="30.69043"/>
<use xlink:href="#glyph-0-2" x="103" y="30.69043"/>
<use xlink:href="#glyph-0-11" x="109" y="30.69043"/>
<use xlink:href="#glyph-0-9" x="113" y="30.69043"/>
<use xlink:href="#glyph-0-1" x="116" y="30.69043"/>
<use xlink:href="#glyph-0-7" x="122" y="30.69043"/>
</g>
</svg>
