<?xml version="1.0" encoding="UTF-8"?>
<svg xmlns="http://www.w3.org/2000/svg" xmlns:xlink="http://www.w3.org/1999/xlink" width="1280" height="720" viewBox="0 0 1280 720">
<defs>
<g>
<g id="glyph-0-0">
<path d="M 2.953125 0.078125 C 2.628906 0.078125 2.363281 0.0078125 2.15625 -0.125 C 1.957031 -0.257812 1.800781 -0.4375 1.6875 -0.65625 L 1.625 -0.65625 L 1.484375 0 L 0.15625 0 L 0.15625 -0.34375 L 0.21875 -0.34375 C 0.40625 -0.34375 0.566406 -0.378906 0.703125 -0.453125 C 0.835938 -0.523438 0.90625 -0.691406 0.90625 -0.953125 L 0.90625 -5.40625 C 0.90625 -5.65625 0.832031 -5.8125 0.6875 -5.875 C 0.550781 -5.945312 0.394531 -5.984375 0.21875 -5.984375 L 0.15625 -5.984375 L 0.15625 -6.328125 L 1.6875 -6.328125 L 1.6875 -4.796875 C 1.6875 -4.703125 1.679688 -4.582031 1.671875 -4.4375 C 1.671875 -4.289062 1.664062 -4.148438 1.65625 -4.015625 C 1.65625 -3.878906 1.65625 -3.78125 1.65625 -3.71875 L 1.6875 -3.71875 C 1.8125 -3.96875 1.972656 -4.164062 2.171875 -4.3125 C 2.367188 -4.46875 2.628906 -4.546875 2.953125 -4.546875 C 3.503906 -4.546875 3.925781 -4.359375 4.21875 -3.984375 C 4.507812 -3.617188 4.65625 -3.035156 4.65625 -2.234375 C 4.65625 -1.429688 4.507812 -0.84375 4.21875 -0.46875 C 3.925781 -0.101562 3.503906 0.078125 2.953125 0.078125 Z M 2.828125 -0.453125 C 3.191406 -0.453125 3.453125 -0.601562 3.609375 -0.90625 C 3.765625 -1.21875 3.84375 -1.664062 3.84375 -2.25 C 3.84375 -2.84375 3.765625 -3.285156 3.609375 -3.578125 C 3.453125 -3.867188 3.1875 -4.015625 2.8125 -4.015625 C 2.382812 -4.015625 2.085938 -3.867188 1.921875 -3.578125 C 1.765625 -3.285156 1.6875 -2.835938 1.6875 -2.234375 C 1.6875 -1.660156 1.765625 -1.21875 1.921875 -0.90625 C 2.085938 -0.601562 2.390625 -0.453125 2.828125 -0.453125 Z "/>
</g>
<g id="glyph-0-1">
</g>
<g id="glyph-0-2">
<path d="M 0.546875 -3.546875 L 0.546875 -4.046875 L 4.109375 -4.046875 L 4.109375 -3.546875 Z M 0.546875 -1.90625 L 0.546875 -2.40625 L 4.109375 -2.40625 L 4.109375 -1.90625 Z "/>
</g>
<g id="glyph-0-3">
<path d="M 1.34375 -5.296875 C 1.207031 -5.296875 1.09375 -5.332031 1 -5.40625 C 0.90625 -5.488281 0.859375 -5.625 0.859375 -5.8125 C 0.859375 -6.007812 0.90625 -6.144531 1 -6.21875 C 1.09375 -6.289062 1.207031 -6.328125 1.34375 -6.328125 C 1.46875 -6.328125 1.578125 -6.289062 1.671875 -6.21875 C 1.765625 -6.144531 1.8125 -6.007812 1.8125 -5.8125 C 1.8125 -5.625 1.765625 -5.488281 1.671875 -5.40625 C 1.578125 -5.332031 1.46875 -5.296875 1.34375 -5.296875 Z M 0.1875 0 L 0.1875 -0.34375 L 0.296875 -0.34375 C 0.484375 -0.34375 0.644531 -0.375 0.78125 -0.4375 C 0.914062 -0.507812 0.984375 -0.664062 0.984375 -0.90625 L 0.984375 -3.546875 C 0.984375 -3.796875 0.914062 -3.953125 0.78125 -4.015625 C 0.644531 -4.078125 0.484375 -4.109375 0.296875 -4.109375 L 0.28125 -4.109375 L 0.28125 -4.46875 L 1.765625 -4.46875 L 1.765625 -0.953125 C 1.765625 -0.691406 1.832031 -0.523438 1.96875 -0.453125 C 2.101562 -0.378906 2.265625 -0.34375 2.453125 -0.34375 L 2.5625 -0.34375 L 2.5625 0 Z "/>
</g>
<g id="glyph-0-4">
<path d="M 1.703125 0.078125 C 1.335938 0.078125 1.03125 -0.0234375 0.78125 -0.234375 C 0.539062 -0.453125 0.421875 -0.789062 0.421875 -1.25 C 0.421875 -1.695312 0.578125 -2.023438 0.890625 -2.234375 C 1.203125 -2.441406 1.675781 -2.554688 2.3125 -2.578125 L 3 -2.609375 L 3 -3.109375 C 3 -3.304688 2.984375 -3.476562 2.953125 -3.625 C 2.921875 -3.78125 2.847656 -3.898438 2.734375 -3.984375 C 2.628906 -4.078125 2.460938 -4.125 2.234375 -4.125 C 2.023438 -4.125 1.863281 -4.082031 1.75 -4 C 1.632812 -3.925781 1.554688 -3.820312 1.515625 -3.6875 C 1.484375 -3.550781 1.46875 -3.394531 1.46875 -3.21875 C 1.238281 -3.21875 1.0625 -3.257812 0.9375 -3.34375 C 0.820312 -3.425781 0.765625 -3.5625 0.765625 -3.75 C 0.765625 -3.945312 0.832031 -4.101562 0.96875 -4.21875 C 1.101562 -4.332031 1.285156 -4.414062 1.515625 -4.46875 C 1.742188 -4.519531 1.992188 -4.546875 2.265625 -4.546875 C 2.773438 -4.546875 3.15625 -4.4375 3.40625 -4.21875 C 3.664062 -4 3.796875 -3.628906 3.796875 -3.109375 L 3.796875 -0.953125 C 3.796875 -0.710938 3.832031 -0.550781 3.90625 -0.46875 C 3.976562 -0.382812 4.113281 -0.34375 4.3125 -0.34375 L 4.328125 -0.34375 L 4.328125 0 L 3.203125 0 L 3.078125 -0.71875 L 3 -0.71875 C 2.882812 -0.5625 2.769531 -0.421875 2.65625 -0.296875 C 2.550781 -0.179688 2.425781 -0.0859375 2.28125 -0.015625 C 2.132812 0.046875 1.941406 0.078125 1.703125 0.078125 Z M 1.90625 -0.4375 C 2.238281 -0.4375 2.503906 -0.539062 2.703125 -0.75 C 2.898438 -0.957031 3 -1.238281 3 -1.59375 L 3 -2.265625 L 2.46875 -2.234375 C 2 -2.210938 1.671875 -2.117188 1.484375 -1.953125 C 1.304688 -1.785156 1.21875 -1.535156 1.21875 -1.203125 C 1.21875 -0.691406 1.445312 -0.4375 1.90625 -0.4375 Z "/>
</g>
<g id="glyph-0-5">
<path d="M 1.75 0.078125 C 1.332031 0.078125 1 0.00390625 0.75 -0.140625 C 0.5 -0.285156 0.375 -0.503906 0.375 -0.796875 C 0.375 -0.953125 0.40625 -1.070312 0.46875 -1.15625 C 0.53125 -1.238281 0.597656 -1.296875 0.671875 -1.328125 C 0.753906 -1.359375 0.832031 -1.375 0.90625 -1.375 C 0.90625 -1.082031 0.96875 -0.832031 1.09375 -0.625 C 1.226562 -0.414062 1.460938 -0.3125 1.796875 -0.3125 C 2.085938 -0.3125 2.3125 -0.378906 2.46875 -0.515625 C 2.632812 -0.660156 2.71875 -0.847656 2.71875 -1.078125 C 2.71875 -1.210938 2.6875 -1.320312 2.625 -1.40625 C 2.570312 -1.5 2.46875 -1.585938 2.3125 -1.671875 C 2.164062 -1.765625 1.957031 -1.867188 1.6875 -1.984375 C 1.40625 -2.109375 1.171875 -2.226562 0.984375 -2.34375 C 0.796875 -2.46875 0.65625 -2.609375 0.5625 -2.765625 C 0.476562 -2.921875 0.4375 -3.117188 0.4375 -3.359375 C 0.4375 -3.742188 0.578125 -4.035156 0.859375 -4.234375 C 1.148438 -4.429688 1.53125 -4.53125 2 -4.53125 C 2.394531 -4.53125 2.695312 -4.457031 2.90625 -4.3125 C 3.113281 -4.164062 3.21875 -3.984375 3.21875 -3.765625 C 3.21875 -3.617188 3.164062 -3.5 3.0625 -3.40625 C 2.957031 -3.3125 2.804688 -3.265625 2.609375 -3.265625 C 2.609375 -3.546875 2.550781 -3.765625 2.4375 -3.921875 C 2.320312 -4.078125 2.144531 -4.15625 1.90625 -4.15625 C 1.613281 -4.15625 1.40625 -4.09375 1.28125 -3.96875 C 1.164062 -3.84375 1.109375 -3.679688 1.109375 -3.484375 C 1.109375 -3.273438 1.1875 -3.113281 1.34375 -3 C 1.5 -2.882812 1.765625 -2.753906 2.140625 -2.609375 C 2.429688 -2.484375 2.664062 -2.359375 2.84375 -2.234375 C 3.03125 -2.117188 3.164062 -1.976562 3.25 -1.8125 C 3.34375 -1.65625 3.390625 -1.457031 3.390625 -1.21875 C 3.390625 -0.789062 3.238281 -0.46875 2.9375 -0.25 C 2.632812 -0.03125 2.238281 0.078125 1.75 0.078125 Z "/>
</g>
</g>
</defs>
<g fill="rgb(98.823529%, 38.431373%, 33.333333%)" fill-opacity="1">
<use xlink:href="#glyph-0-0" x="30" y="28.908203"/>
<use xlink:href="#glyph-0-1" x="35" y="28.908203"/>
<use xlink:href="#glyph-0-2" x="37" y="28.908203"/>
<use xlink:href="#glyph-0-1" x="42" y="28.908203"/>
<use xlink:href="#glyph-0-0" x="44" y="28.908203"/>
<use xlink:href="#glyph-0-3" x="49" y="28.908203"/>
<use xlink:href="#glyph-0-4" x="52" y="28.908203"/>
<use xlink:href="#glyph-0-5" x="57" y="28.908203"/>
</g>
</svg>
